<?xml version="1.0" encoding="utf-8"?>
<!-- Generator: Adobe Illustrator 22.1.0, SVG Export Plug-In . SVG Version: 6.00 Build 0)  -->
<svg version="1.1" id="Calque_1" xmlns="http://www.w3.org/2000/svg" xmlns:xlink="http://www.w3.org/1999/xlink" x="0px" y="0px"
	 viewBox="0 0 785 829" style="enable-background:new 0 0 785 829;" xml:space="preserve">
<style type="text/css">
	.st0{fill:#205072;}
	.st1{clip-path:url(#SVGID_2_);}
	.st2{fill:#E0E0E0;}
	.st3{fill:#F55F44;}
	.st4{opacity:5.000000e-02;enable-background:new    ;}
	.st5{fill:url(#SVGID_3_);}
	.st6{fill:#F5F5F5;}
	.st7{fill:#DBDBDB;}
	.st8{opacity:0.5;}
	.st9{opacity:0.5;fill:#47E6B1;enable-background:new    ;}
	.st10{opacity:0.5;fill:#4D8AF0;enable-background:new    ;}
	.st11{opacity:0.5;fill:#F55F44;enable-background:new    ;}
	.st12{fill:#7BE495;}
	.st13{opacity:0.15;enable-background:new    ;}
</style>
<path class="st0" d="M722,347.5c25.8,63.9-9.2,135.6-74.5,186c-65.4,50.5-161.3,79.7-256.7,58.6c-95.5-21.1-190.6-92.5-224.5-173.5
	c-33.9-81-6.5-171.6,63.1-214.4c69.7-42.8,182-37.9,281.3-7.3C609.9,227.4,696.4,283.6,722,347.5z"/>
<g>
	<defs>
		
			<rect id="SVGID_1_" x="290.3" y="162.3" transform="matrix(0.4621 -0.8868 0.8868 0.4621 -131.2546 656.5269)" width="370.5" height="548.4"/>
	</defs>
	<clipPath id="SVGID_2_">
		<use xlink:href="#SVGID_1_"  style="overflow:visible;"/>
	</clipPath>
	<g class="st1">
		<path class="st2" d="M252.8,322.1c10.4-7.2,17.9-14.3,16.7-15.9c-1.2-1.6-10.6,3-21.1,10.2c-10.4,7.2-17.9,14.3-16.7,15.9
			C232.9,333.9,242.3,329.3,252.8,322.1z"/>
		<path class="st2" d="M455.3,585.6c10.4-7.2,18.2-13.9,17.4-15c-0.8-1.1-9.9,3.9-20.4,11.1c-10.4,7.2-18.2,13.9-17.4,15
			C435.7,597.8,444.8,592.8,455.3,585.6z"/>
		<path class="st3" d="M337.9,460.6l-5.9-12.9l-43.4,16.8l5.9,12.8L337.9,460.6z"/>
		<path class="st4" d="M297.6,482.1l12.5,10.5l30.2-34l-12.5-10.5L297.6,482.1z"/>
		<path class="st3" d="M299,483.3l11.1,9.3l30.2-34l-11.1-9.3L299,483.3z"/>
		
			<linearGradient id="SVGID_3_" gradientUnits="userSpaceOnUse" x1="333.1444" y1="363.8805" x2="371.3116" y2="393.2395" gradientTransform="matrix(1 0 0 -1 -2.085928e-05 830)">
			<stop  offset="0" style="stop-color:#808080;stop-opacity:0.25"/>
			<stop  offset="0.5351" style="stop-color:#808080;stop-opacity:0.12"/>
			<stop  offset="1" style="stop-color:#808080;stop-opacity:0.1"/>
		</linearGradient>
		<path class="st5" d="M270.4,305.6L230.7,333L434,597.3l39.7-27.4L270.4,305.6z"/>
		<path class="st6" d="M411,563.6c-4-5.1-206.2-268.1-203.3-264.3c25.8-13.4,37.8-26.1,37.8-26.1l203.3,264.3
			C448.8,537.6,431.3,548.1,411,563.6z"/>
		<path class="st4" d="M375.1,443.6l-16.8-21.8l-37.8,26.1l16.8,21.8L375.1,443.6z"/>
		<path class="st3" d="M374.4,442.7l-15.3-19.9l-37.8,26.1l15.3,19.9L374.4,442.7z"/>
		<path class="st4" d="M371.5,438.9l-10.2-13.3l-37.8,26.1l10.2,13.3L371.5,438.9z"/>
		<path class="st3" d="M370.8,437.9l-8.7-11.4l-37.8,26.1L333,464L370.8,437.9z"/>
		<path class="st7" d="M308.8,553.2c1,0.5,2.2,0.2,2.7-0.7c0.5-0.9,0.1-2.1-0.9-2.6c-1-0.5-2.2-0.2-2.7,0.7
			C307.4,551.6,307.8,552.7,308.8,553.2z"/>
		<g class="st8">
			<path class="st9" d="M194.1,431.7l-1.8-1l-5.1,9.7l1.8,1L194.1,431.7z"/>
			<path class="st9" d="M195.4,439.7l0.9-1.7l-10.4-5.4l-0.9,1.7L195.4,439.7z"/>
		</g>
		<g class="st8">
			<path class="st9" d="M719.5,551.2l-1.8-1l-5.1,9.7l1.8,1L719.5,551.2z"/>
			<path class="st9" d="M720.8,559.1l0.9-1.7l-10.4-5.4l-0.9,1.7L720.8,559.1z"/>
		</g>
		<g class="st8">
			<path class="st9" d="M331.1,195.3l-1.8-1l-5.1,9.7l1.8,1L331.1,195.3z"/>
			<path class="st9" d="M332.4,203.2l0.9-1.7l-10.4-5.4l-0.9,1.7L332.4,203.2z"/>
		</g>
		<g class="st8">
			<path class="st9" d="M735.1,386.8l-1.8-1l-5.1,9.7l1.8,1L735.1,386.8z"/>
			<path class="st9" d="M736.4,394.7l0.9-1.7l-10.4-5.4l-0.9,1.7L736.4,394.7z"/>
		</g>
		<path class="st10" d="M249.9,294.5c-0.4-0.5-0.6-1.1-0.6-1.6c0-0.6,0.3-1.1,0.7-1.6c0.1-0.1,0.1-0.1,0.2-0.2l0,0
			c0.1-0.2,0.2-0.5,0.2-0.7c0-0.3-0.2-0.5-0.3-0.7c-0.2-0.2-0.4-0.3-0.7-0.4c-0.3-0.1-0.5,0-0.8,0.1l0,0c-0.1,0-0.2,0.1-0.2,0.1
			c-0.5,0.4-1.1,0.5-1.7,0.5c-0.6,0-1.2-0.3-1.6-0.7c-0.1-0.1-0.1-0.1-0.2-0.2l0,0c-0.2-0.1-0.5-0.2-0.8-0.2s-0.5,0.1-0.7,0.3
			c-0.2,0.2-0.3,0.4-0.4,0.6s0,0.5,0.1,0.8l0,0c0,0.1,0.1,0.2,0.2,0.2c0.4,0.5,0.6,1.1,0.6,1.6c0,0.6-0.3,1.1-0.7,1.6
			c-0.1,0.1-0.1,0.1-0.2,0.2l0,0c-0.1,0.2-0.2,0.5-0.2,0.7s0.2,0.5,0.3,0.7c0.2,0.2,0.4,0.3,0.7,0.4c0.3,0.1,0.5,0,0.8-0.1l0,0
			c0.1,0,0.2-0.1,0.2-0.1c0.5-0.4,1.1-0.5,1.7-0.5c0.6,0,1.2,0.3,1.6,0.7c0.1,0.1,0.1,0.1,0.2,0.2l0,0c0.2,0.1,0.5,0.2,0.8,0.2
			c0.3,0,0.5-0.1,0.7-0.3c0.2-0.2,0.3-0.4,0.4-0.6c0-0.3,0-0.5-0.1-0.8C250,294.6,250,294.5,249.9,294.5L249.9,294.5z"/>
		<path class="st10" d="M389.8,203.4c-0.4-0.5-0.6-1.1-0.6-1.6c0-0.6,0.3-1.1,0.7-1.6c0.1-0.1,0.1-0.1,0.2-0.2l0,0
			c0.1-0.2,0.2-0.5,0.2-0.7c0-0.3-0.2-0.5-0.3-0.7c-0.2-0.2-0.4-0.3-0.7-0.4c-0.3-0.1-0.5,0-0.8,0.1l0,0c-0.1,0-0.2,0.1-0.2,0.1
			c-0.5,0.4-1.1,0.5-1.7,0.5s-1.2-0.3-1.6-0.7c-0.1-0.1-0.1-0.1-0.2-0.2l0,0c-0.2-0.1-0.5-0.2-0.8-0.2c-0.3,0-0.5,0.1-0.7,0.3
			c-0.2,0.2-0.3,0.4-0.4,0.6c0,0.3,0,0.5,0.1,0.8l0,0c0,0.1,0.1,0.2,0.2,0.2c0.4,0.5,0.6,1.1,0.6,1.6c0,0.6-0.3,1.1-0.7,1.6
			c-0.1,0.1-0.1,0.1-0.2,0.2l0,0c-0.1,0.2-0.2,0.5-0.2,0.7c0,0.3,0.2,0.5,0.3,0.7c0.2,0.2,0.4,0.3,0.7,0.4c0.3,0.1,0.5,0,0.8-0.1
			c0.1,0,0.2-0.1,0.2-0.1c0.5-0.4,1.1-0.5,1.7-0.5c0.6,0,1.2,0.3,1.6,0.7c0.1,0.1,0.1,0.1,0.2,0.2l0,0c0.2,0.1,0.5,0.2,0.8,0.2
			c0.3,0,0.5-0.1,0.7-0.3c0.2-0.2,0.3-0.4,0.4-0.7c0-0.3,0-0.5-0.1-0.8l0,0C389.9,203.6,389.8,203.5,389.8,203.4L389.8,203.4z"/>
		<path class="st10" d="M389.9,596c-0.4-0.5-0.6-1.1-0.6-1.6s0.3-1.1,0.7-1.6c0.1-0.1,0.1-0.1,0.2-0.2l0,0c0.1-0.2,0.2-0.5,0.2-0.7
			c0-0.3-0.2-0.5-0.3-0.7c-0.2-0.2-0.4-0.3-0.7-0.4c-0.3-0.1-0.5,0-0.8,0.1c-0.1,0-0.2,0.1-0.2,0.1c-0.5,0.4-1.1,0.5-1.7,0.5
			c-0.6,0-1.2-0.3-1.6-0.7c-0.1-0.1-0.1-0.1-0.2-0.2l0,0c-0.2-0.1-0.5-0.2-0.8-0.2c-0.3,0-0.5,0.1-0.7,0.3c-0.2,0.2-0.3,0.4-0.4,0.7
			c0,0.3,0,0.5,0.1,0.8c0,0.1,0.1,0.2,0.2,0.2c0.4,0.5,0.6,1.1,0.6,1.6s-0.3,1.1-0.7,1.6c-0.1,0.1-0.1,0.1-0.2,0.2l0,0
			c-0.1,0.2-0.2,0.5-0.2,0.7c0,0.3,0.2,0.5,0.3,0.7c0.2,0.2,0.4,0.3,0.7,0.4c0.3,0.1,0.5,0,0.8-0.1l0,0c0.1,0,0.2-0.1,0.2-0.1
			c0.5-0.4,1.1-0.5,1.7-0.5c0.6,0,1.2,0.3,1.6,0.7c0.1,0.1,0.1,0.1,0.2,0.2l0,0c0.2,0.1,0.5,0.2,0.8,0.2c0.3,0,0.5-0.1,0.7-0.3
			c0.2-0.2,0.3-0.4,0.4-0.7c0-0.3,0-0.5-0.1-0.8l0,0C390,596.1,390,596,389.9,596L389.9,596z"/>
		<path class="st11" d="M648.1,645c2,1.1,4.5,0.4,5.5-1.5c1-1.9,0.1-4.3-1.9-5.3c-2-1.1-4.5-0.4-5.5,1.5
			C645.3,641.6,646.1,644,648.1,645z"/>
		<path class="st10" d="M556.1,624.7c2,1.1,4.5,0.4,5.5-1.5c1-1.9,0.1-4.3-1.9-5.3c-2-1.1-4.5-0.4-5.5,1.5
			C553.2,621.3,554.1,623.7,556.1,624.7z"/>
		<path class="st9" d="M218.2,491.6c2,1.1,4.5,0.4,5.5-1.5c1-1.9,0.1-4.3-1.9-5.3c-2-1.1-4.5-0.4-5.5,1.5
			C215.3,488.1,216.1,490.5,218.2,491.6z"/>
		<path class="st11" d="M541.9,250.3c2,1.1,4.5,0.4,5.5-1.5c1-1.9,0.1-4.3-1.9-5.3c-2-1.1-4.5-0.4-5.5,1.5
			C539,246.9,539.8,249.3,541.9,250.3z"/>
		<path class="st12" d="M312.7,382.4l-25.4,13c0,0-6.1,23.7,102.4,79.5c108.5,55.8,127.5,40.2,127.5,40.2l-5.9-38l-41.2-71.7
			L312.7,382.4z"/>
		<path class="st13" d="M312.7,382.4l-25.4,13c0,0-6.1,23.7,102.4,79.5c108.5,55.8,127.5,40.2,127.5,40.2l-5.9-38l-41.2-71.7
			L312.7,382.4z"/>
		<path class="st12" d="M664.6,468.6l-234-20.8L237.2,245.9l262.9,20.5L582,367.1l2.9,3.6L664.6,468.6z"/>
		<path class="st13" d="M664.6,468.6l-234-20.8L237.2,245.9l262.9,20.5L582,367.1l2.9,3.6L664.6,468.6z"/>
		<path class="st6" d="M555.9,436.2l-3.8-1.7l29.9-67.4l2.9,3.6L555.9,436.2z"/>
		<path class="st12" d="M355,306.9l-67.8,88.4c0,0,142.3,26.8,229.9,119.8l37.7-111.4C554.9,403.8,419.9,312.3,355,306.9z"/>
		<path class="st6" d="M569.3,488.9c9.8,5.1,20.4,4.1,23.7-2.2c3.3-6.3-2-15.6-11.8-20.7s-20.4-4.1-23.7,2.2
			C554.2,474.5,559.5,483.8,569.3,488.9z"/>
	</g>
</g>
</svg>
